<?xml version="1.0" standalone="no"?><!DOCTYPE svg PUBLIC "-//W3C//DTD SVG 1.1//EN" "http://www.w3.org/Graphics/SVG/1.1/DTD/svg11.dtd"><svg t="1552643335257" class="icon" style="" viewBox="0 0 1024 1024" version="1.1" xmlns="http://www.w3.org/2000/svg" p-id="15338" xmlns:xlink="http://www.w3.org/1999/xlink" width="16" height="16"><defs><style type="text/css"></style></defs><path d="M553.391916 989.906659c-3.499317-3.299356-6.798672-6.698692-10.098028-10.098028-3.499317-3.299356-6.798672-6.698692-10.098028-10.098028-3.499317-3.299356-6.798672-6.698692-10.098028-10.098027-3.499317-3.299356-6.798672-6.698692-10.098027-10.098028-3.499317-3.299356-6.798672-6.698692-10.098028-10.098028-3.499317-3.299356-6.798672-6.698692-10.098028-10.098028-3.499317-3.299356-6.798672-6.698692-10.098027-10.098027-3.499317-3.299356-6.798672-6.698692-10.098028-10.098028-3.499317-3.299356-6.798672-6.698692-10.098028-10.098028-3.499317-3.299356-6.798672-6.698692-10.098028-10.098027-3.499317-3.299356-6.798672-6.698692-10.098027-10.098028-3.499317-3.299356-6.798672-6.698692-10.098028-10.098028-3.499317-3.299356-6.798672-6.698692-10.098028-10.098028-3.499317-3.299356-6.798672-6.698692-10.098028-10.098027-3.499317-3.299356-6.798672-6.698692-10.098027-10.098028-3.499317-3.299356-6.798672-6.698692-10.098028-10.098028-3.499317-3.299356-6.798672-6.698692-10.098028-10.098028-3.499317-3.299356-6.798672-6.698692-10.098027-10.098027-3.499317-3.299356-6.798672-6.698692-10.098028-10.098028-3.499317-3.299356-6.798672-6.698692-10.098028-10.098028-3.499317-3.299356-6.798672-6.698692-10.098028-10.098027-3.499317-3.299356-6.798672-6.698692-10.098027-10.098028-3.499317-3.299356-6.798672-6.698692-10.098028-10.098028-3.499317-3.299356-6.798672-6.698692-10.098028-10.098028-3.499317-3.299356-6.798672-6.698692-10.098028-10.098027-58.888498-56.189026-95.581332-135.47354-95.581331-223.256396 0-170.466706 138.173013-308.739699 308.739699-308.739699 87.782855 0 167.06737 36.692833 223.256395 95.581332 3.499317 3.299356 6.798672 6.698692 10.098028 10.098028 3.499317 3.299356 6.798672 6.698692 10.098028 10.098027 3.499317 3.299356 6.798672 6.698692 10.098027 10.098028 3.499317 3.299356 6.798672 6.698692 10.098028 10.098028 3.499317 3.299356 6.798672 6.698692 10.098028 10.098028 3.499317 3.299356 6.798672 6.698692 10.098028 10.098027 3.499317 3.299356 6.798672 6.698692 10.098027 10.098028 3.499317 3.299356 6.798672 6.698692 10.098028 10.098028 3.499317 3.299356 6.798672 6.698692 10.098028 10.098027 3.499317 3.299356 6.798672 6.698692 10.098027 10.098028 3.499317 3.299356 6.798672 6.698692 10.098028 10.098028 3.499317 3.299356 6.798672 6.698692 10.098028 10.098028 3.499317 3.299356 6.798672 6.698692 10.098028 10.098027 3.499317 3.299356 6.798672 6.698692 10.098027 10.098028 3.499317 3.299356 6.798672 6.698692 10.098028 10.098028 3.499317 3.299356 6.798672 6.698692 10.098028 10.098028 3.499317 3.299356 6.798672 6.698692 10.098028 10.098027 3.499317 3.299356 6.798672 6.698692 10.098027 10.098028 3.499317 3.299356 6.798672 6.698692 10.098028 10.098028 3.499317 3.299356 6.798672 6.698692 10.098028 10.098027 3.499317 3.299356 6.798672 6.698692 10.098027 10.098028 3.499317 3.299356 6.798672 6.698692 10.098028 10.098028 3.499317 3.299356 6.798672 6.698692 10.098028 10.098028 3.499317 3.299356 6.798672 6.698692 10.098028 10.098027 3.499317 3.299356 6.798672 6.698692 10.098027 10.098028 12.397579 11.797696 23.795352 24.695177 34.093342 38.492482V204.760008C1024 91.682093 932.317907 0 819.140012 0H0v665.570006c0 197.961336 160.468658 358.429994 358.429994 358.429994H591.884398c-13.797305-10.297989-26.694786-21.695763-38.492482-34.093341z" fill="#FFFFFF" p-id="15339"></path><path d="M1024 819.140012V591.884398c-10.297989-13.797305-21.695763-26.594806-34.093341-38.492482-3.299356-3.499317-6.698692-6.798672-10.098028-10.098028-3.299356-3.499317-6.698692-6.798672-10.098028-10.098028-3.299356-3.499317-6.698692-6.798672-10.098027-10.098028-3.299356-3.499317-6.698692-6.798672-10.098028-10.098027-3.299356-3.499317-6.698692-6.798672-10.098028-10.098028-3.299356-3.499317-6.698692-6.798672-10.098028-10.098028-3.299356-3.499317-6.698692-6.798672-10.098027-10.098027-3.299356-3.499317-6.698692-6.798672-10.098028-10.098028-3.299356-3.499317-6.698692-6.798672-10.098028-10.098028-3.299356-3.499317-6.698692-6.798672-10.098027-10.098028-3.299356-3.499317-6.698692-6.798672-10.098028-10.098027-3.299356-3.499317-6.698692-6.798672-10.098028-10.098028-3.299356-3.499317-6.698692-6.798672-10.098028-10.098028-3.299356-3.499317-6.698692-6.798672-10.098027-10.098028-3.299356-3.499317-6.698692-6.798672-10.098028-10.098027-3.299356-3.499317-6.698692-6.798672-10.098028-10.098028-3.299356-3.499317-6.698692-6.798672-10.098028-10.098028-3.299356-3.499317-6.698692-6.798672-10.098027-10.098027-3.299356-3.499317-6.698692-6.798672-10.098028-10.098028-3.299356-3.499317-6.698692-6.798672-10.098028-10.098028-3.299356-3.499317-6.698692-6.798672-10.098027-10.098028-3.299356-3.499317-6.698692-6.798672-10.098028-10.098027-3.299356-3.499317-6.698692-6.798672-10.098028-10.098028-3.299356-3.499317-6.698692-6.798672-10.098028-10.098028-3.299356-3.499317-6.698692-6.798672-10.098027-10.098028-56.189026-58.888498-135.47354-95.581332-223.256396-95.581331-170.466706 0-308.739699 138.173013-308.739699 308.739699 0 87.782855 36.692833 167.06737 95.581332 223.256395 3.299356 3.499317 6.698692 6.798672 10.098028 10.098028 3.299356 3.499317 6.698692 6.798672 10.098027 10.098028 3.299356 3.499317 6.698692 6.798672 10.098028 10.098027 3.299356 3.499317 6.698692 6.798672 10.098028 10.098028 3.299356 3.499317 6.698692 6.798672 10.098028 10.098028 3.299356 3.499317 6.698692 6.798672 10.098027 10.098028 3.299356 3.499317 6.698692 6.798672 10.098028 10.098027 3.299356 3.499317 6.698692 6.798672 10.098028 10.098028 3.299356 3.499317 6.698692 6.798672 10.098027 10.098028 3.299356 3.499317 6.698692 6.798672 10.098028 10.098027 3.299356 3.499317 6.698692 6.798672 10.098028 10.098028 3.299356 3.499317 6.698692 6.798672 10.098028 10.098028 3.299356 3.499317 6.698692 6.798672 10.098027 10.098028 3.299356 3.499317 6.698692 6.798672 10.098028 10.098027 3.299356 3.499317 6.698692 6.798672 10.098028 10.098028 3.299356 3.499317 6.698692 6.798672 10.098028 10.098028 3.299356 3.499317 6.698692 6.798672 10.098027 10.098028 3.299356 3.499317 6.698692 6.798672 10.098028 10.098027 3.299356 3.499317 6.698692 6.798672 10.098028 10.098028 3.299356 3.499317 6.698692 6.798672 10.098027 10.098028 3.299356 3.499317 6.698692 6.798672 10.098028 10.098027 3.299356 3.499317 6.698692 6.798672 10.098028 10.098028 3.299356 3.499317 6.698692 6.798672 10.098028 10.098028 3.299356 3.499317 6.698692 6.798672 10.098027 10.098028 3.299356 3.499317 6.698692 6.798672 10.098028 10.098027 11.797696 12.397579 24.695177 23.795352 38.492482 34.093342h227.355595c112.977934 0.09998 204.660027-91.582113 204.660027-204.760008z" fill="#FFFFFF" p-id="15340"></path><path d="M1024 819.140012V591.884398c-10.297989-13.797305-21.695763-26.594806-34.093341-38.492482-3.299356-3.499317-6.698692-6.798672-10.098028-10.098028-3.299356-3.499317-6.698692-6.798672-10.098028-10.098028-3.299356-3.499317-6.698692-6.798672-10.098027-10.098028-3.299356-3.499317-6.698692-6.798672-10.098028-10.098027-3.299356-3.499317-6.698692-6.798672-10.098028-10.098028-3.299356-3.499317-6.698692-6.798672-10.098028-10.098028-3.299356-3.499317-6.698692-6.798672-10.098027-10.098027-3.299356-3.499317-6.698692-6.798672-10.098028-10.098028-3.299356-3.499317-6.698692-6.798672-10.098028-10.098028-3.299356-3.499317-6.698692-6.798672-10.098027-10.098028-3.299356-3.499317-6.698692-6.798672-10.098028-10.098027-3.299356-3.499317-6.698692-6.798672-10.098028-10.098028-3.299356-3.499317-6.698692-6.798672-10.098028-10.098028-3.299356-3.499317-6.698692-6.798672-10.098027-10.098028-3.299356-3.499317-6.698692-6.798672-10.098028-10.098027-3.299356-3.499317-6.698692-6.798672-10.098028-10.098028-3.299356-3.499317-6.698692-6.798672-10.098028-10.098028-3.299356-3.499317-6.698692-6.798672-10.098027-10.098027-3.299356-3.499317-6.698692-6.798672-10.098028-10.098028-3.299356-3.499317-6.698692-6.798672-10.098028-10.098028-3.299356-3.499317-6.698692-6.798672-10.098027-10.098028-3.299356-3.499317-6.698692-6.798672-10.098028-10.098027-3.299356-3.499317-6.698692-6.798672-10.098028-10.098028-3.299356-3.499317-6.698692-6.798672-10.098028-10.098028-3.299356-3.499317-6.698692-6.798672-10.098027-10.098028-56.189026-58.888498-135.47354-95.581332-223.256396-95.581331-170.466706 0-308.739699 138.173013-308.739699 308.739699 0 87.782855 36.692833 167.06737 95.581332 223.256395 3.299356 3.499317 6.698692 6.798672 10.098028 10.098028 3.299356 3.499317 6.698692 6.798672 10.098027 10.098028 3.299356 3.499317 6.698692 6.798672 10.098028 10.098027 3.299356 3.499317 6.698692 6.798672 10.098028 10.098028 3.299356 3.499317 6.698692 6.798672 10.098028 10.098028 3.299356 3.499317 6.698692 6.798672 10.098027 10.098028 3.299356 3.499317 6.698692 6.798672 10.098028 10.098027 3.299356 3.499317 6.698692 6.798672 10.098028 10.098028 3.299356 3.499317 6.698692 6.798672 10.098027 10.098028 3.299356 3.499317 6.698692 6.798672 10.098028 10.098027 3.299356 3.499317 6.698692 6.798672 10.098028 10.098028 3.299356 3.499317 6.698692 6.798672 10.098028 10.098028 3.299356 3.499317 6.698692 6.798672 10.098027 10.098028 3.299356 3.499317 6.698692 6.798672 10.098028 10.098027 3.299356 3.499317 6.698692 6.798672 10.098028 10.098028 3.299356 3.499317 6.698692 6.798672 10.098028 10.098028 3.299356 3.499317 6.698692 6.798672 10.098027 10.098028 3.299356 3.499317 6.698692 6.798672 10.098028 10.098027 3.299356 3.499317 6.698692 6.798672 10.098028 10.098028 3.299356 3.499317 6.698692 6.798672 10.098027 10.098028 3.299356 3.499317 6.698692 6.798672 10.098028 10.098027 3.299356 3.499317 6.698692 6.798672 10.098028 10.098028 3.299356 3.499317 6.698692 6.798672 10.098028 10.098028 3.299356 3.499317 6.698692 6.798672 10.098027 10.098028 3.299356 3.499317 6.698692 6.798672 10.098028 10.098027 11.797696 12.397579 24.695177 23.795352 38.492482 34.093342h227.355595c112.977934 0.09998 204.660027-91.582113 204.660027-204.760008z" fill="#f0f0f0" p-id="15341"></path><path d="M512 512m-307.140012 0a307.140012 307.140012 0 1 0 614.280024 0 307.140012 307.140012 0 1 0-614.280024 0Z" fill="#EC716D" p-id="15342"></path><path d="M603.882054 514.599492c-0.199961 0.999805-0.499902 2.799453-1.099785 5.498926s-0.899824 4.499121-1.099785 5.498926c-70.986136-15.297012-124.675649-37.392697-161.768405-66.686975-37.092755-29.294278-62.387815-59.488381-75.885178-90.582308-13.597344-31.193907-17.596563-59.988284-12.097638-86.483109 5.498926-26.494825 15.796915-44.891232 31.093927-55.08924 19.996095-12.897481 44.49131-15.396993 73.385667-7.398555 28.994337 7.998438 55.889084 24.795157 80.684242 50.390158s44.49131 59.28842 58.888498 100.880297c14.397188 41.591877 17.096661 89.582503 7.898457 143.97188zM593.884007 555.491506c-18.296426 51.989846-43.791447 92.681898-76.485061 122.076157-32.693615 29.394259-66.087092 49.190393-100.180434 59.588361-34.093341 10.397969-65.787151 11.997657-94.981449 4.799063-29.194298-7.098614-49.390353-21.19586-60.588166-42.19176-8.39836-16.296817-8.598321-37.392697-0.599883-63.287639s25.495021-49.090412 52.389767-69.78637c26.894747-20.695958 63.687561-34.793204 110.178481-42.291739 46.5909-7.598516 104.179652-0.699863 172.966218 20.495996l0.699863-0.09998c-0.299941 0.999805-0.899824 2.699473-1.699668 5.398946s-1.399727 4.399141-1.699668 5.298965zM621.878539 530.296426c-0.09998-0.599883 0.09998-1.699668 0.699864-3.299355 0.599883-1.599688 0.799844-2.599492 0.699863-3.299356 8.39836-34.793204 21.395821-61.687952 39.092365-80.684241 17.696544-18.99629 36.092951-31.79379 55.08924-38.392502s37.192736-7.798477 54.289397-3.699277c17.196641 4.099199 29.59422 12.097637 37.292716 23.895333 5.598906 8.49834 6.29877 20.396016 2.299551 35.693029-3.999219 15.297012-13.497364 29.394259-28.194493 42.39172-14.79711 12.997461-35.393087 22.895528-61.787932 29.6942-26.394845 6.798672-59.588362 5.998828-99.480571-2.299551zM616.979496 551.092365c38.892404 12.097637 68.286663 27.49463 88.182777 46.290959 19.896114 18.796329 33.093536 37.492677 39.692248 55.989064 6.598711 18.596368 7.998438 35.493068 4.199179 50.79008-3.799258 15.297012-10.297989 25.29506-19.296231 30.094123-12.397579 6.598711-27.194689 7.498535-44.191369 2.699472-16.99668-4.799063-32.293693-14.597149-45.791056-29.59422-13.497364-14.997071-23.395431-35.093146-29.6942-60.388205-6.29877-25.195079-4.699082-55.08924 4.799062-89.582503 0.399922-0.499902 0.699863-1.599688 0.999805-3.199376 0.399922-1.499707 0.699863-2.599492 1.099785-3.099394z" fill="#FFFFFF" p-id="15343"></path></svg>