<?xml version="1.0" standalone="no"?><!DOCTYPE svg PUBLIC "-//W3C//DTD SVG 1.1//EN" "http://www.w3.org/Graphics/SVG/1.1/DTD/svg11.dtd"><svg t="1552813034678" class="icon" style="" viewBox="0 0 1024 1024" version="1.1" xmlns="http://www.w3.org/2000/svg" p-id="1489" xmlns:xlink="http://www.w3.org/1999/xlink" width="24" height="24"><defs><style type="text/css"></style></defs><path d="M830.106884 380.151712l-87.113041 0c0-139.903716-106.912758-246.83076-243.196526-246.83076-136.475193 0-243.216525 106.927044-243.216525 246.83076l-87.284467 0c0-167.931887 148.089313-333.938087 330.300996-333.938087S830.106884 212.216968 830.106884 380.151712L830.106884 380.151712zM940.648162 523.269668c0-48.019314-39.085156-87.08447-87.113041-87.08447L155.567949 436.185197c-48.019314 0-87.098756 39.062299-87.098756 87.08447l0 413.614091c0 48.042171 39.076585 87.098756 87.098756 87.098756l697.795746 0c48.0136 0 87.098756-39.056585 87.098756-87.098756L940.462451 523.269668 940.648162 523.269668zM573.553406 846.727904c0 36.028057-29.156726 65.356209-65.376209 65.356209l-9.342724 0c-36.013771 0-65.376209-29.142441-65.376209-65.356209l0-177.254611c0-36.028057 29.162441-65.370495 65.376209-65.370495l9.342724 0c36.019485 0 65.376209 29.156726 65.376209 65.370495L573.553406 846.727904 573.553406 846.727904z" p-id="1490" data-spm-anchor-id="a313x.7781069.0.i2" class="selected" fill="#1296db"></path></svg>