<?xml version="1.0" standalone="no"?><!DOCTYPE svg PUBLIC "-//W3C//DTD SVG 1.1//EN" "http://www.w3.org/Graphics/SVG/1.1/DTD/svg11.dtd"><svg t="1552813310952" class="icon" style="" viewBox="0 0 1024 1024" version="1.1" xmlns="http://www.w3.org/2000/svg" p-id="5928" xmlns:xlink="http://www.w3.org/1999/xlink" width="24" height="24"><defs><style type="text/css"></style></defs><path d="M884.4032 937.6l-106.3936 0c-31.9232 0-53.1968-21.248-53.1968-53.1968l0-106.3936c0-31.8976 21.2736-53.1968 53.1968-53.1968l0-106.3936-212.8128 0 0 106.3936c31.9232 0 53.1968 21.2992 53.1968 53.1968l0 106.3936c0 31.9488-21.2736 53.1968-53.1968 53.1968l-106.3936 0c-31.9232 0-53.1968-21.248-53.1968-53.1968l0-106.3936c0-31.8976 21.2736-53.1968 53.1968-53.1968l0-106.3936L245.9904 618.4192l0 106.3936c31.9232 0 53.1968 21.2992 53.1968 53.1968l0 106.3936c0 31.9488-21.2736 53.1968-53.1968 53.1968L139.5968 937.6c-31.9232 0-53.1968-21.248-53.1968-53.1968l0-106.3936c0-31.8976 21.2736-53.1968 53.1968-53.1968l0-106.3936 0-53.1968C139.5968 533.2992 160.8704 512 192.7936 512l266.0096 0 0-106.3936-53.1968 0c-31.9232 0-53.1968-21.248-53.1968-53.1968L352.4096 139.5968c0-31.8976 21.2736-53.1968 53.1968-53.1968l212.8128 0c31.9232 0 53.1968 21.2992 53.1968 53.1968l0 212.8128c0 31.9488-21.2736 53.1968-53.1968 53.1968l-53.1968 0L565.2224 512l266.0096 0c31.9232 0 53.1968 21.3248 53.1968 53.2224l0 53.1968 0 106.3936c31.9232 0 53.1968 21.2992 53.1968 53.1968l0 106.3936C937.6 916.352 916.3264 937.6 884.4032 937.6z" p-id="5929" fill="#1296db"></path></svg>