<?xml version="1.0" standalone="no"?><!DOCTYPE svg PUBLIC "-//W3C//DTD SVG 1.1//EN" "http://www.w3.org/Graphics/SVG/1.1/DTD/svg11.dtd"><svg t="1552813260051" class="icon" style="" viewBox="0 0 1024 1024" version="1.1" xmlns="http://www.w3.org/2000/svg" p-id="5551" xmlns:xlink="http://www.w3.org/1999/xlink" width="24" height="24"><defs><style type="text/css"></style></defs><path d="M164.99124 128.33897l-35.971259 0 0 768.640078 726.845183 0 0-32.157397-690.378643-1.701758L164.99124 128.33897zM238.046093 796.695041l181.711552 0L419.757644 433.279101 238.046093 600.400353 238.046093 796.695041zM456.098317 433.279101l0 363.41594L637.809869 796.695041l0-329.965084-72.681346 66.838268L456.098317 433.279101zM674.155658 796.695041l181.709505 0L855.865163 289.13926 674.155658 456.260511 674.155658 796.695041zM433.402409 331.086627l131.726114 120.279411 259.727393-237.69868 66.608024 61.668525-1.612731-146.996912-160.501484 0.748037 62.512752 57.520041L564.878836 395.816884 430.921915 272.072559 226.512409 459.388758l34.232662 30.459732L433.402409 331.086627z" p-id="5552" fill="#1296db"></path></svg>